<?xml version="1.0" encoding="UTF-8" standalone="no"?>
<svg width="80px" height="66px" viewBox="0 0 80 66" version="1.1" xmlns="http://www.w3.org/2000/svg" xmlns:xlink="http://www.w3.org/1999/xlink">
    <!-- Generator: sketchtool 41.2 (35397) - http://www.bohemiancoding.com/sketch -->
    <title>0C3B95B6-F9AD-4F90-B97F-8D3B97D36C4B</title>
    <desc>Created with sketchtool.</desc>
    <defs></defs>
    <g id="Desktop" stroke="none" stroke-width="1" fill="none" fill-rule="evenodd">
        <g id="1.0-Home" transform="translate(-631.000000, -868.000000)" fill="#000000">
            <g id="content" transform="translate(0.000000, 120.000000)">
                <g id="middle" transform="translate(0.000000, 660.000000)">
                    <g id="box" transform="translate(631.000000, 88.000000)">
                        <path d="M67.4004307,14.9162471 L67.4004307,3.44595504 C67.4004307,1.542711 65.8577197,0 63.9544757,0 L60.5513797,0 C58.6483511,0 57.1054247,1.542711 57.1054247,3.44595504 L57.1054247,14.9203392 C55.5398842,15.7589985 54.3400458,17.0923677 53.6030421,18.8243909 C53.0348903,20.1592677 52.7469377,21.718347 52.7469377,23.4587697 L52.7469377,28.476511 L56.1928927,28.476511 L56.1928927,23.4587697 C56.1928927,21.3765514 56.7252928,18.6923677 59.2427783,17.7249159 C60.0288868,17.4238255 60.5513797,16.6650693 60.5513797,15.8169336 L60.5513797,3.44595504 L63.9544757,3.44595504 L63.9544757,15.8169336 C63.9544757,16.6650693 64.4767533,17.4238255 65.2628618,17.7249159 C68.068946,18.8067304 68.4917216,21.7797281 68.4917216,23.4587697 L68.4917216,28.476511 L71.9376767,28.476511 L71.9376767,23.4587697 C71.9376767,19.4959214 70.2976174,16.4382824 67.4004307,14.9162471 Z M45.3095706,14.9162471 L45.3095706,3.44595504 C45.3095706,1.542711 43.7668596,0 41.8636156,0 L38.4605196,0 C36.5574909,0 35.0145645,1.542711 35.0145645,3.44595504 L35.0145645,14.9203392 C33.4490241,15.7589985 32.2491856,17.0923677 31.512182,18.8243909 C30.9440302,20.1592677 30.6560775,21.718347 30.6560775,23.4587697 L30.6560775,28.476511 L34.1020326,28.476511 L34.1020326,23.4587697 C34.1020326,21.3765514 34.6344326,18.6923677 37.1519182,17.7249159 C37.9380267,17.4238255 38.4605196,16.6650693 38.4605196,15.8169336 L38.4605196,3.44595504 L41.8636156,3.44595504 L41.8636156,15.8169336 C41.8636156,16.6650693 42.3858931,17.4238255 43.1720016,17.7249159 C45.9780859,18.8067304 46.4008615,21.7797281 46.4008615,23.4587697 L46.4008615,28.476511 L49.8468165,28.476511 L49.8468165,23.4587697 C49.8468165,19.4959214 48.2067573,16.4382824 45.3095706,14.9162471 Z M23.2187105,14.9162471 L23.2187105,3.44595504 C23.2187105,1.542711 21.6757841,0 19.7727554,0 L16.3696594,0 C14.4666308,0 12.9237044,1.542711 12.9237044,3.44595504 L12.9237044,14.9203392 C11.358164,15.7589985 10.1583255,17.0923677 9.42132185,18.8243909 C8.85317001,20.1592677 8.56521739,21.718347 8.56521739,23.4587697 L8.56521739,28.476511 L12.0111724,28.476511 L12.0111724,23.4587697 C12.0111724,21.3765514 12.5435725,18.6923677 15.061058,17.7249159 C15.8471665,17.4238255 16.3696594,16.6650693 16.3696594,15.8169336 L16.3696594,3.44595504 L19.7727554,3.44595504 L19.7727554,15.8169336 C19.7727554,16.6650693 20.295033,17.4238255 21.0811415,17.7249159 C23.8872257,18.8067304 24.3100013,21.7797281 24.3100013,23.4587697 L24.3100013,28.476511 L27.7559564,28.476511 L27.7559564,23.4587697 C27.7559564,19.4959214 26.1161125,16.4382824 23.2187105,14.9162471 Z" id="Combined-Shape"></path>
                        <path d="M4,35.8271871 L4,57.3902042 C4,59.5985209 5.79213371,61.3913043 8.00005106,61.3913043 L71.9999489,61.3913043 C74.2101294,61.3913043 76,59.6008962 76,57.3902042 L76,35.8271871 C76,33.6188704 74.2078663,31.826087 71.9999489,31.826087 L8.00005106,31.826087 C5.78987062,31.826087 4,33.6164951 4,35.8271871 Z M0,35.8271871 C0,31.4083015 3.5797863,27.826087 8.00005106,27.826087 L71.9999489,27.826087 C76.4182551,27.826087 80,31.4109814 80,35.8271871 L80,57.3902042 C80,61.8090898 76.4202137,65.3913043 71.9999489,65.3913043 L8.00005106,65.3913043 C3.58174486,65.3913043 0,61.8064099 0,57.3902042 L0,35.8271871 Z" id="Combined-Shape"></path>
                        <path d="M29.2173913,42 C29.2173913,42.9671916 29.9994483,43.7391304 30.9641644,43.7391304 L49.7314878,43.7391304 C50.6990374,43.7391304 51.4782609,42.9604952 51.4782609,42 C51.4782609,41.0328084 50.6962039,40.2608696 49.7314878,40.2608696 L30.9641644,40.2608696 C29.9966147,40.2608696 29.2173913,41.0395048 29.2173913,42 Z M25.2173913,42 C25.2173913,38.8264626 27.7913716,36.2608696 30.9641644,36.2608696 L49.7314878,36.2608696 C52.9013856,36.2608696 55.4782609,38.8196466 55.4782609,42 C55.4782609,45.1735374 52.9042806,47.7391304 49.7314878,47.7391304 L30.9641644,47.7391304 C27.7942665,47.7391304 25.2173913,45.1803534 25.2173913,42 Z" id="Rectangle-Copy"></path>
                    </g>
                </g>
            </g>
        </g>
    </g>
</svg>