<?xml version="1.0" encoding="UTF-8" standalone="no"?>
<svg width="89px" height="74px" viewBox="0 0 89 74" version="1.1" xmlns="http://www.w3.org/2000/svg" xmlns:xlink="http://www.w3.org/1999/xlink">
    <!-- Generator: sketchtool 41.2 (35397) - http://www.bohemiancoding.com/sketch -->
    <title>EC524753-907C-4909-8C3F-CEEC4DC1012A</title>
    <desc>Created with sketchtool.</desc>
    <defs>
        <polygon id="path-1" points="9.40487265e-21 0.174645094 9.40487265e-21 70.5964887 85.3242653 70.5964887 85.3242653 0.174645094 0 0.174645094"></polygon>
    </defs>
    <g id="Desktop" stroke="none" stroke-width="1" fill="none" fill-rule="evenodd">
        <g id="1.0-Home" transform="translate(-230.000000, -860.000000)">
            <g id="content" transform="translate(0.000000, 120.000000)">
                <g id="middle" transform="translate(0.000000, 660.000000)">
                    <g id="map" transform="translate(230.000000, 80.000000)">
                        <mask id="mask-2" fill="white">
                            <use xlink:href="#path-1"></use>
                        </mask>
                        <g id="Clip-4"></g>
                        <path d="M54.2972692,66.86455 L52.3410041,64.8963943 L60.8976688,56.2881349 L71.420314,66.8739745 L54.2972692,66.86455 Z M43.7744505,56.2783613 L52.3311152,47.6701019 L58.5448072,53.9211821 L49.987969,62.5290925 L43.7744505,56.2783613 Z M30.3814251,66.8514604 L25.2676552,61.7068896 L34.8662965,52.0511113 L49.5887702,66.8617575 L30.3814251,66.8514604 Z M8.96920487,66.839767 C8.47875068,66.839767 8.08007232,66.4388755 8.08007232,65.9453094 L8.08007232,58.7893 L12.8708053,53.97005 L25.6730996,66.8491915 L8.96920487,66.839767 Z M8.07989883,29.8825264 L9.3926922,32.0962434 C10.0661776,33.2313755 11.2524973,33.9090689 12.5661581,33.9090689 C13.8799924,33.9090689 15.0663121,33.2313755 15.739624,32.0964179 C15.7394505,32.0962434 23.7381737,18.6079981 23.7562166,18.5723943 C24.6562789,16.8045972 25.1323335,14.8141019 25.1323335,12.8161019 C25.1323335,11.6423991 24.971162,10.4952245 24.6661678,9.39604528 L48.0790665,9.40791321 L33.5408384,24.0332104 L28.3351191,18.7961396 C27.6850548,18.1427057 26.6318014,18.1427057 25.9819105,18.7961396 C25.3321932,19.4495736 25.3321932,20.509484 25.9819105,21.1634415 L36.6317234,31.8768613 L28.0750587,40.4851208 L21.1446825,33.5132387 C20.4949651,32.8599792 19.4417117,32.8599792 18.7918209,33.5132387 C18.1421035,34.1670217 18.1421035,35.2269321 18.7918209,35.8807151 L22.4689261,39.580017 L8.07989883,54.0550453 L8.07989883,29.8825264 Z M4.64082086,16.8255406 C4.00637057,15.5600358 3.68905867,14.1933047 3.69738616,12.7618236 C3.7258384,7.93943208 7.64756355,3.96175755 12.4395109,3.89508774 C14.8366123,3.86541792 17.0904115,4.77401226 18.7935558,6.46362075 C19.379776,7.04549811 19.8731795,7.69561604 20.2711639,8.39477642 C20.2885129,8.42811132 20.3074232,8.45987547 20.3266805,8.49198868 C21.0492634,9.79955472 21.43493,11.2767623 21.43493,12.8162764 C21.43493,14.2283849 21.1174446,15.5769651 20.4914953,16.8258896 L12.56824,30.1905689 L4.64082086,16.8255406 Z M61.4054719,20.7665642 L45.8495558,36.4156443 L40.1617097,30.6939085 L40.1610158,30.6930358 C40.1606688,30.6926868 40.1604953,30.6925123 40.1601483,30.6919887 L35.8935265,26.3999887 L51.4494427,10.7512575 L61.4054719,20.7665642 Z M72.6841834,9.42030472 L63.758507,18.3994368 L54.8238092,9.41122925 L72.6841834,9.42030472 Z M32.5136084,49.6841585 L22.9147936,59.3401113 L15.2236669,51.6027481 L24.8223082,41.9467953 L32.5136084,49.6841585 Z M49.9780801,45.3033236 L41.4212419,53.911234 L30.4277468,42.8520736 L38.984585,34.2439887 L49.9780801,45.3033236 Z M76.2133023,66.8764179 L76.1289865,66.8762434 L63.2508774,53.9211821 L67.1268014,50.0220453 C67.7766922,49.3682623 67.7766922,48.3085264 67.1268014,47.6547434 C66.477084,47.0011349 65.4238306,47.0011349 64.7739398,47.6547434 L60.8976688,51.5538802 L53.5084135,44.1205453 L53.507546,44.1196726 L53.5066786,44.1188 L48.2025908,38.7827717 L54.5097936,32.4379698 L62.1152166,39.9144132 C62.4762478,40.2774321 62.9491795,40.459116 63.4224583,40.459116 C63.8953901,40.459116 64.3688423,40.2774321 64.7295265,39.9144132 C65.4514154,39.1882009 65.4514154,38.0106585 64.7295265,37.2840972 L57.1241035,29.8076538 L77.3878248,9.42274811 L80.7356474,9.4244934 C81.226969,9.42501698 81.6266883,9.82695566 81.6266883,10.3206962 L81.6266883,20.7644698 L81.6266883,33.2940311 C82.3036435,33.4162009 82.4653355,33.7771255 82.4653355,33.7771255 L82.4653355,43.8018566 C82.4653355,44.4891491 82.8862205,45.1040123 83.5192828,45.3480028 C84.3591444,45.6738472 84.9335674,46.2112198 85.3242653,46.8274792 L85.3242653,41.5513142 L85.3242653,23.4516821 L85.3242653,10.3206962 C85.3242653,7.77869151 83.2678969,5.70791321 80.7385967,5.70494623 L22.9383881,5.6758 C22.486969,5.01503585 21.9704914,4.39144623 21.3898228,3.8153283 C18.9769339,1.42132358 15.7828228,0.125625472 12.388852,0.176064151 C5.59796121,0.270658491 0.0405791423,5.90687547 0.000156140351,12.7396585 C-0.0116411306,14.7643613 0.464066472,16.7812104 1.37592612,18.5723943 C1.39396901,18.6079981 4.38232183,23.6487245 4.38232183,23.6487245 L4.38232183,65.9451349 C4.38232183,68.4894085 6.43990468,70.5593142 8.96816394,70.5593142 L77.1723511,70.5964887 C76.615971,70.3884509 76.3371737,70.1723849 76.2133023,70.0523094 L76.2133023,66.8764179 Z" id="Fill-3" fill="#000000" mask="url(#mask-2)"></path>
                        <path d="M81.1496448,30.4610703 C78.4550094,30.4610703 77.4683758,32.0606222 77.2303485,32.5508722 C77.0448885,32.9327401 76.9484285,33.3519571 76.9484285,33.777108 L76.9484285,43.0754524 C75.6871614,43.7550656 74.7206526,44.8355703 74.1269723,46.2391269 C73.6694811,47.3208533 73.4375259,48.5844382 73.4375259,49.9944524 L73.4375259,66.8764005 L73.4375259,70.052292 C73.4375259,70.8104429 73.743908,71.5361316 74.2865825,72.0623344 C74.7702706,72.531641 75.4161712,72.9190939 76.2060678,73.2142212 C77.4727131,73.6873675 79.1416799,73.9271693 81.1669938,73.9271693 C84.4837618,73.9271693 86.7847501,73.3500042 88.0064616,72.2117307 C88.5737715,71.683259 88.8961146,70.940641 88.8961146,70.1629429 L88.8961146,49.9944524 C88.8961146,48.7509382 88.6825493,46.9313061 87.6646877,45.3258203 C87.0578222,44.3688816 86.2292374,43.6011316 85.241216,43.0740561 L85.241216,33.777108 C85.241216,33.3811033 85.1575942,32.9896363 84.9957287,32.6288863 C84.5179392,31.5632165 83.4417852,30.7844712 82.1166741,30.5453675 C81.8064752,30.4893439 81.4810094,30.4610703 81.1496448,30.4610703 M81.1496448,33.2535231 C81.332676,33.2535231 81.4895103,33.2692307 81.6267404,33.2940137 C82.303522,33.4161835 82.4653875,33.777108 82.4653875,33.777108 L82.4653875,43.8018392 C82.4653875,44.4891316 82.8862725,45.1039948 83.5193349,45.3479854 C84.3591965,45.6738297 84.9336195,46.2110278 85.3241439,46.8274618 C85.985485,47.8702684 86.1202862,49.1392637 86.1202862,49.9944524 L86.1202862,70.1629429 C85.8760133,70.3907024 84.7897969,71.1347165 81.1669938,71.1347165 C79.1461906,71.1347165 77.9130288,70.8730986 77.1722296,70.5964712 C76.616023,70.3884335 76.3372257,70.1723675 76.2133544,70.052292 L76.2133544,66.8764005 L76.2133544,49.9944524 C76.2133544,48.3072873 76.6422199,46.132141 78.6701361,45.3479854 C79.3031984,45.1039948 79.7242569,44.4891316 79.7242569,43.8018392 L79.7242569,33.777108 C79.7242569,33.777108 79.9785922,33.2535231 81.1496448,33.2535231" id="Fill-8" fill="#000000"></path>
                        <path d="M12.5665051,14.2667637 C11.7712302,14.2667637 11.1242887,13.6157731 11.1242887,12.8157354 C11.1242887,12.0156976 11.7712302,11.3648816 12.5665051,11.3648816 C13.3617799,11.3648816 14.0087214,12.0155231 14.0087214,12.8157354 C14.0087214,13.6159476 13.3616064,14.2667637 12.5665051,14.2667637 M12.5665051,7.64568349 C9.73273119,7.64568349 7.42705867,9.96516462 7.42705867,12.8159099 C7.42705867,15.6668297 9.73273119,17.9863108 12.5665051,17.9863108 C15.4002789,17.9863108 17.7059515,15.6668297 17.7059515,12.8159099 C17.7059515,9.96516462 15.4002789,7.64568349 12.5665051,7.64568349" id="Fill-1" fill="#000000"></path>
                    </g>
                </g>
            </g>
        </g>
    </g>
</svg>