<?xml version="1.0" encoding="UTF-8" standalone="no"?>
<svg width="94px" height="69px" viewBox="0 0 94 69" version="1.1" xmlns="http://www.w3.org/2000/svg" xmlns:xlink="http://www.w3.org/1999/xlink">
    <!-- Generator: sketchtool 41.2 (35397) - http://www.bohemiancoding.com/sketch -->
    <title>672D53D5-16C4-47A1-950C-A8DE3696E050</title>
    <desc>Created with sketchtool.</desc>
    <defs></defs>
    <g id="Desktop" stroke="none" stroke-width="1" fill="none" fill-rule="evenodd">
        <g id="1.0-Home" transform="translate(-1010.000000, -863.000000)">
            <g id="content" transform="translate(0.000000, 120.000000)">
                <g id="middle" transform="translate(0.000000, 660.000000)">
                    <g id="happy" transform="translate(1010.000000, 83.000000)">
                        <path d="M11.3758543,61.5804408 C8.63782149,61.5804408 6.41924226,61.2723898 4.78284882,60.6647031 C3.8836867,60.3311512 3.17068124,59.9131913 2.66295811,59.4225537 C2.26488889,59.038255 2.04022587,58.5086011 2.04022587,57.9552313 L2.04022587,28.5899126 C2.04022587,24.1961056 3.78984335,21.1041202 6.96674681,19.8828816 C7.11363206,19.8267796 7.21104554,19.6824444 7.21104554,19.5235738 L7.21104554,4.8467796 C7.21104554,4.53643352 7.28168306,4.22991257 7.41811293,3.95118761 C7.63716576,3.5028816 8.56820401,2.04014936 11.3503534,2.04014936 C11.7183315,2.04014936 12.0761093,2.07100546 12.4139964,2.13169763 C14.3196794,2.47340984 14.9885683,3.65435701 15.148204,4.00805464 C15.2670383,4.27173406 15.3284954,4.55759927 15.3284954,4.8467796 L15.3284954,19.5235738 C15.3284954,19.6826995 15.4259089,19.8270346 15.5707541,19.8823716 C17.1133042,20.4770528 18.339643,21.4771985 19.2191694,22.8562878 C20.4526485,24.7902769 20.7114827,27.0417523 20.7114827,28.5899126 L20.7114827,58.1176721 C20.7114827,58.6858324 20.4745792,59.2282368 20.0576393,59.6145756 C19.0891148,60.5114426 16.7965829,61.5804408 11.3758543,61.5804408" id="Fill-1" fill="#ECECEC"></path>
                        <path d="M11.3504554,0.000102003643 C7.38659381,0.000102003643 5.93584699,2.33853552 5.58546448,3.05511111 C5.31260474,3.61307104 5.17107468,4.22585792 5.17107468,4.8468051 L5.17107468,18.4650565 C3.31307832,19.458827 1.88910747,21.0403934 1.01493625,23.0952568 C0.341457195,24.6778434 0,26.5264044 0,28.5899381 L0,53.3059308 L0,57.9552568 C0,59.0632714 0.450601093,60.1235993 1.24826958,60.8927067 C1.96,61.5786812 2.90990893,62.1455665 4.07249545,62.5770419 C5.93686703,63.2693916 8.39413479,63.6205392 11.3759563,63.6205392 C16.2588707,63.6205392 19.6461566,62.775949 21.4439709,61.1109945 C22.2778506,60.338827 22.7516576,59.2540182 22.7516576,58.1176976 L22.7516576,28.5899381 C22.7516576,26.7701931 22.4372313,24.108153 20.9390528,21.7592641 C20.0452459,20.3579891 18.8245173,19.2339089 17.3686703,18.4630164 L17.3686703,4.8468051 C17.3686703,4.26818944 17.2455009,3.69645902 17.0078324,3.16910018 C16.3052823,1.61150455 14.7221858,0.472888889 12.7734062,0.123526412 C12.3166849,0.0416684882 11.8380328,0.000102003643 11.3504554,0.000102003643 M11.3504554,4.08024772 C11.62,4.08024772 11.8510383,4.10319854 12.0532605,4.13966485 C13.0500911,4.31842623 13.2885246,4.8468051 13.2885246,4.8468051 L13.2885246,19.5235993 C13.2885246,20.5298652 13.9081967,21.4300474 14.840765,21.7873151 C16.0775592,22.2641821 16.9234244,23.0508852 17.49898,23.9533625 C18.4728597,25.479847 18.6715118,27.3380984 18.6715118,28.5899381 L18.6715118,58.1176976 C18.311694,58.4507395 16.7117668,59.5403934 11.3759563,59.5403934 C8.39974499,59.5403934 6.58357013,59.1571148 5.49264117,58.7521603 C4.67304189,58.4479344 4.26247723,58.1314681 4.08014572,57.9552568 L4.08014572,53.3059308 L4.08014572,28.5899381 C4.08014572,26.1196648 4.71180328,22.9353661 7.69872495,21.7873151 C8.63103825,21.4300474 9.2512204,20.5298652 9.2512204,19.5235993 L9.2512204,4.8468051 C9.2512204,4.8468051 9.62557377,4.08024772 11.3504554,4.08024772" id="Fill-3" fill="#000000"></path>
                        <path d="M61.9593078,61.9340619 C47.2549727,61.9340619 35.2922404,49.9710747 35.2922404,35.2669945 C35.2922404,20.5626594 47.2549727,8.59992714 61.9593078,8.59992714 C76.663643,8.59992714 88.6263752,20.5626594 88.6263752,35.2669945 C88.6263752,49.9713297 76.663643,61.9340619 61.9593078,61.9340619 M61.9593078,4.02837887 C44.7342077,4.02837887 30.7206922,18.0421494 30.7206922,35.2669945 C30.7206922,52.4918397 44.7342077,66.5056102 61.9593078,66.5056102 C79.184408,66.5056102 93.1979235,52.4918397 93.1979235,35.2669945 C93.1979235,18.0421494 79.184408,4.02837887 61.9593078,4.02837887" id="Fill-5" fill="#000000"></path>
                        <path d="M78.3889581,41.3622477 L45.5297596,41.3622477 C45.1018543,40.2131767 44.7904882,39.0077486 44.6119818,37.7599891 C47.8597778,37.9887322 53.8973734,38.3146339 61.9592313,38.3146339 C70.0213443,38.3146339 76.0586849,37.9887322 79.3067359,37.7599891 C79.1279745,39.0077486 78.8168634,40.2131767 78.3889581,41.3622477 L78.3889581,41.3622477 Z M61.9592313,52.7909909 C56.3069545,52.7909909 51.2710346,50.1008998 48.0645501,45.933796 L75.8539126,45.933796 C72.6474281,50.1008998 67.6115082,52.7909909 61.9592313,52.7909909 L61.9592313,52.7909909 Z M84.0547505,32.7419199 L81.5421457,32.9925938 C81.466663,32.9999891 73.8745319,33.7430856 61.9592313,33.7430856 C50.0441858,33.7430856 42.4517996,32.9999891 42.376827,32.9925938 L39.8637122,32.7411548 L39.8637122,35.26702 C39.8637122,47.4505902 49.7756612,57.3625392 61.9592313,57.3625392 C74.1430565,57.3625392 84.0550055,47.4505902 84.0550055,35.26702 L84.0547505,32.7419199 Z" id="Fill-7" fill="#000000"></path>
                        <path d="M58.3891803,21.8789654 C58.3891803,25.2591111 56.7336612,27.999184 54.6915483,27.999184 C52.6494353,27.999184 50.9939162,25.2591111 50.9939162,21.8789654 C50.9939162,18.4988197 52.6494353,15.7587468 54.6915483,15.7587468 C56.7336612,15.7587468 58.3891803,18.4988197 58.3891803,21.8789654" id="Fill-14" fill="#000000"></path>
                        <path d="M72.9246995,21.8789654 C72.9246995,25.2591111 71.2691803,27.999184 69.2270674,27.999184 C67.1849545,27.999184 65.5294353,25.2591111 65.5294353,21.8789654 C65.5294353,18.4988197 67.1849545,15.7587468 69.2270674,15.7587468 C71.2691803,15.7587468 72.9246995,18.4988197 72.9246995,21.8789654" id="Fill-16" fill="#000000"></path>
                        <path d="M26.1663825,66.9356321 C23.4283497,66.9356321 21.2097705,66.6275811 19.573377,66.0198944 C18.6742149,65.6863424 17.9612095,65.2683825 17.4534863,64.777745 C17.0554171,64.3934463 16.8307541,63.8637923 16.8307541,63.3104226 L16.8307541,33.9451038 C16.8307541,29.5512969 18.5803716,26.4593115 21.757275,25.2380729 C21.9041603,25.1819709 22.0015738,25.0376357 22.0015738,24.878765 L22.0015738,10.2019709 C22.0015738,9.89187978 22.0722113,9.58535883 22.2083862,9.30663388 C22.427694,8.85832787 23.3584772,7.39534062 26.1408816,7.39534062 C26.5083497,7.39534062 26.8661275,7.42619672 27.2045246,7.48688889 C29.1104627,7.8288561 29.7790965,9.00980328 29.9387322,9.3632459 C30.0575665,9.62718033 30.1190237,9.91304554 30.1190237,10.2019709 L30.1190237,24.878765 C30.1190237,25.0378907 30.2164372,25.1822259 30.3612823,25.2375628 C31.9038324,25.8322441 33.1301712,26.8323898 34.0096976,28.2114791 C35.2431767,30.1454681 35.5020109,32.3969435 35.5020109,33.9451038 L35.5020109,63.4728634 C35.5020109,64.0410237 35.2651075,64.5834281 34.8481676,64.9697668 C33.879643,65.8666339 31.5871111,66.9356321 26.1663825,66.9356321" id="Fill-9" fill="#ECECEC"></path>
                        <path d="M26.1409836,5.35529326 C22.177122,5.35529326 20.7263752,7.69372678 20.3759927,8.41030237 C20.103133,8.9682623 19.9616029,9.58104918 19.9616029,10.2019964 L19.9616029,23.8202477 C18.1036066,24.8140182 16.6796357,26.3955847 15.8054645,28.4504481 C15.1319854,30.0330346 14.7905282,31.8815956 14.7905282,33.9451293 L14.7905282,58.661122 L14.7905282,63.3104481 C14.7905282,64.4184627 15.2411293,65.4787905 16.0387978,66.247898 C16.7505282,66.9338725 17.7004372,67.5007577 18.8630237,67.9322332 C20.7273953,68.6245829 23.184663,68.9757304 26.1664845,68.9757304 C31.0493989,68.9757304 34.4366849,68.1311403 36.2344991,66.4661858 C37.0683789,65.6940182 37.5421858,64.6092095 37.5421858,63.4728889 L37.5421858,33.9451293 C37.5421858,32.1253843 37.2277596,29.4633443 35.7295811,27.1144554 C34.8357741,25.7131803 33.6150455,24.5891002 32.1591985,23.8182077 L32.1591985,10.2019964 C32.1591985,9.6236357 32.0360291,9.05165027 31.7983607,8.52429144 C31.0958106,6.96669581 29.512714,5.82808015 27.5639344,5.47871767 C27.1072131,5.39685974 26.628561,5.35529326 26.1409836,5.35529326 M26.1409836,9.43543898 C26.4105282,9.43543898 26.6415665,9.4583898 26.8437887,9.4948561 C27.8406193,9.67361749 28.0790528,10.2019964 28.0790528,10.2019964 L28.0790528,24.8787905 C28.0790528,25.8850565 28.698725,26.7852386 29.6312933,27.1425064 C30.8680874,27.6193734 31.7139526,28.4060765 32.2895082,29.3085537 C33.263388,30.8350383 33.4620401,32.6932896 33.4620401,33.9451293 L33.4620401,63.4728889 C33.1022222,63.8059308 31.5022951,64.8955847 26.1664845,64.8955847 C23.1902732,64.8955847 21.3740984,64.512306 20.2831694,64.1073515 C19.4635701,63.8031257 19.0530055,63.4866594 18.870674,63.3104481 L18.870674,58.661122 L18.870674,33.9451293 C18.870674,31.4748561 19.5023315,28.2905574 22.4892532,27.1425064 C23.4215665,26.7852386 24.0417486,25.8850565 24.0417486,24.8787905 L24.0417486,10.2019964 C24.0417486,10.2019964 24.416102,9.43543898 26.1409836,9.43543898" id="Fill-11" fill="#000000"></path>
                    </g>
                </g>
            </g>
        </g>
    </g>
</svg>